<mxfile host="app.diagrams.net" modified="2021-12-22T11:37:56.178Z" agent="5.0 (X11)" etag="-9FbCBfKf-3VOnoThXJE" version="16.0.2" type="github" pages="7">
  <diagram id="fdSmBV78nnwIcxZWc0c9" name="class">
    <mxGraphModel dx="771" dy="437" grid="1" gridSize="10" guides="1" tooltips="1" connect="1" arrows="1" fold="1" page="1" pageScale="1" pageWidth="850" pageHeight="1100" math="0" shadow="0">
      <root>
        <mxCell id="0" />
        <mxCell id="1" parent="0" />
        <mxCell id="HV8fmyC_HNrwRBPpIRvl-1" value="CSensors" style="swimlane;fontStyle=1;align=center;verticalAlign=top;childLayout=stackLayout;horizontal=1;startSize=26;horizontalStack=0;resizeParent=1;resizeParentMax=0;resizeLast=0;collapsible=1;marginBottom=0;fillColor=#FAE5C7;strokeColor=#0F8B8D;fontColor=#143642;" parent="1" vertex="1">
          <mxGeometry x="320" y="80" width="190" height="310" as="geometry" />
        </mxCell>
        <mxCell id="HV8fmyC_HNrwRBPpIRvl-2" value="- pir: CPir&#xa;- ldr: CLdr&#xa;- lampf: CFailureDetector&#xa;&#xa;- mutReadLdr: mutex&#xa;- condReadLdr: condition variable&#xa;&#xa;+ msgqSensors: msg_queue&#xa;+ mainPID: int&#xa;- timReadLdrSecs: const int&#xa;&#xa;&#xa;" style="text;strokeColor=none;fillColor=none;align=left;verticalAlign=top;spacingLeft=4;spacingRight=4;overflow=hidden;rotatable=0;points=[[0,0.5],[1,0.5]];portConstraint=eastwest;fontColor=#143642;fontStyle=0" parent="HV8fmyC_HNrwRBPpIRvl-1" vertex="1">
          <mxGeometry y="26" width="190" height="154" as="geometry" />
        </mxCell>
        <mxCell id="HV8fmyC_HNrwRBPpIRvl-3" value="" style="line;strokeWidth=1;fillColor=none;align=left;verticalAlign=middle;spacingTop=-1;spacingLeft=3;spacingRight=3;rotatable=0;labelPosition=right;points=[];portConstraint=eastwest;labelBackgroundColor=#DAD2D8;strokeColor=#0F8B8D;fontColor=#143642;" parent="HV8fmyC_HNrwRBPpIRvl-1" vertex="1">
          <mxGeometry y="180" width="190" height="8" as="geometry" />
        </mxCell>
        <mxCell id="HV8fmyC_HNrwRBPpIRvl-4" value="+ CSensors(void)&#xa;+ ~CSensors(void)&#xa;&#xa;+ run(void) void&#xa;- sendCmd(IN cmd : string) void&#xa;- pirISR(void) void&#xa;- lampfISR(void) void&#xa;- tReadLdr(void*) void&#xa;&#xa;&#xa;&#xa;&#xa;" style="text;strokeColor=none;fillColor=none;align=left;verticalAlign=top;spacingLeft=4;spacingRight=4;overflow=hidden;rotatable=0;points=[[0,0.5],[1,0.5]];portConstraint=eastwest;fontColor=#143642;spacing=2;fontStyle=0" parent="HV8fmyC_HNrwRBPpIRvl-1" vertex="1">
          <mxGeometry y="188" width="190" height="122" as="geometry" />
        </mxCell>
        <mxCell id="HV8fmyC_HNrwRBPpIRvl-5" value="" style="endArrow=diamondThin;endFill=1;endSize=24;html=1;rounded=0;sketch=0;fontColor=#143642;strokeColor=#A8201A;fillColor=#FAE5C7;exitX=0;exitY=0.5;exitDx=0;exitDy=0;" parent="1" edge="1">
          <mxGeometry width="160" relative="1" as="geometry">
            <mxPoint x="572.48" y="155" as="sourcePoint" />
            <mxPoint x="510" y="155" as="targetPoint" />
          </mxGeometry>
        </mxCell>
        <mxCell id="HV8fmyC_HNrwRBPpIRvl-6" value="CLdr" style="rounded=0;whiteSpace=wrap;html=1;sketch=0;fontColor=#143642;strokeColor=#0F8B8D;fillColor=#FAE5C7;fontStyle=1" parent="1" vertex="1">
          <mxGeometry x="572.48" y="140" width="120" height="30" as="geometry" />
        </mxCell>
        <mxCell id="HV8fmyC_HNrwRBPpIRvl-7" value="" style="endArrow=diamondThin;endFill=1;endSize=24;html=1;rounded=0;sketch=0;fontColor=#143642;strokeColor=#A8201A;fillColor=#FAE5C7;exitX=0;exitY=0.5;exitDx=0;exitDy=0;" parent="1" edge="1">
          <mxGeometry width="160" relative="1" as="geometry">
            <mxPoint x="572.48" y="225" as="sourcePoint" />
            <mxPoint x="510" y="225" as="targetPoint" />
          </mxGeometry>
        </mxCell>
        <mxCell id="HV8fmyC_HNrwRBPpIRvl-8" value="CFailureDetector" style="rounded=0;whiteSpace=wrap;html=1;sketch=0;fontColor=#143642;strokeColor=#0F8B8D;fillColor=#FAE5C7;fontStyle=1" parent="1" vertex="1">
          <mxGeometry x="572.48" y="210" width="120" height="30" as="geometry" />
        </mxCell>
        <mxCell id="SfdQOZMJDRlAEpSHrWV7-1" value="" style="endArrow=diamondThin;endFill=1;endSize=24;html=1;rounded=0;sketch=0;fontColor=#143642;strokeColor=#A8201A;fillColor=#FAE5C7;exitX=0;exitY=0.5;exitDx=0;exitDy=0;" parent="1" edge="1">
          <mxGeometry width="160" relative="1" as="geometry">
            <mxPoint x="572.48" y="295" as="sourcePoint" />
            <mxPoint x="510" y="295" as="targetPoint" />
          </mxGeometry>
        </mxCell>
        <mxCell id="SfdQOZMJDRlAEpSHrWV7-2" value="CPir" style="rounded=0;whiteSpace=wrap;html=1;sketch=0;fontColor=#143642;strokeColor=#0F8B8D;fillColor=#FAE5C7;fontStyle=1" parent="1" vertex="1">
          <mxGeometry x="572.48" y="280" width="120" height="30" as="geometry" />
        </mxCell>
      </root>
    </mxGraphModel>
  </diagram>
  <diagram id="vo8CCdLDu9ror5AgPQNq" name="constructor">
    <mxGraphModel dx="771" dy="437" grid="1" gridSize="10" guides="1" tooltips="1" connect="1" arrows="1" fold="1" page="1" pageScale="1" pageWidth="850" pageHeight="1100" math="0" shadow="0">
      <root>
        <mxCell id="dY0yFO3wvzVGIZuMnCoH-0" />
        <mxCell id="dY0yFO3wvzVGIZuMnCoH-1" parent="dY0yFO3wvzVGIZuMnCoH-0" />
        <mxCell id="dY0yFO3wvzVGIZuMnCoH-3" value="&lt;div&gt;&lt;b&gt;Create CLdr &lt;/b&gt;&lt;i&gt;ldr&lt;/i&gt;&lt;br&gt;&lt;b&gt;&lt;/b&gt;&lt;/div&gt;&lt;div&gt;&lt;b&gt;Init &lt;/b&gt;&lt;i&gt;mutReadLdr&lt;/i&gt;&lt;b&gt;&lt;br&gt;&lt;/b&gt;&lt;/div&gt;&lt;div&gt;&lt;b&gt;Init&lt;/b&gt;  &lt;i&gt;condReadLdr&lt;/i&gt;&lt;/div&gt;" style="rounded=0;whiteSpace=wrap;html=1;sketch=0;fontColor=#143642;strokeColor=#0F8B8D;fillColor=#FAE5C7;fontFamily=Helvetica;align=center;" parent="dY0yFO3wvzVGIZuMnCoH-1" vertex="1">
          <mxGeometry x="345" y="250" width="160" height="50" as="geometry" />
        </mxCell>
        <mxCell id="dY0yFO3wvzVGIZuMnCoH-9" style="edgeStyle=orthogonalEdgeStyle;curved=0;rounded=1;sketch=0;orthogonalLoop=1;jettySize=auto;html=1;exitX=0.5;exitY=1;exitDx=0;exitDy=0;entryX=0.5;entryY=0;entryDx=0;entryDy=0;fontSize=10;fontColor=#143642;strokeColor=#A8201A;fillColor=#FAE5C7;" parent="dY0yFO3wvzVGIZuMnCoH-1" target="jv_c10XiMa1QM72tJMU1-0" edge="1">
          <mxGeometry relative="1" as="geometry">
            <mxPoint x="425" y="300" as="sourcePoint" />
          </mxGeometry>
        </mxCell>
        <mxCell id="OnQcYnKIbqPXPp1BFBYC-1" style="edgeStyle=orthogonalEdgeStyle;rounded=0;orthogonalLoop=1;jettySize=auto;html=1;exitX=0.5;exitY=1;exitDx=0;exitDy=0;entryX=0.5;entryY=0;entryDx=0;entryDy=0;strokeColor=#A8201A;" parent="dY0yFO3wvzVGIZuMnCoH-1" source="OnQcYnKIbqPXPp1BFBYC-0" target="OnQcYnKIbqPXPp1BFBYC-2" edge="1">
          <mxGeometry relative="1" as="geometry" />
        </mxCell>
        <mxCell id="OnQcYnKIbqPXPp1BFBYC-0" value="CSensors" style="ellipse;whiteSpace=wrap;html=1;fontFamily=Helvetica;fillColor=#FAE5C7;strokeColor=#0F8B8D;fontColor=#143642;fontStyle=1" parent="dY0yFO3wvzVGIZuMnCoH-1" vertex="1">
          <mxGeometry x="374.99999999999994" y="60" width="100" height="50" as="geometry" />
        </mxCell>
        <mxCell id="OnQcYnKIbqPXPp1BFBYC-3" style="edgeStyle=orthogonalEdgeStyle;rounded=0;orthogonalLoop=1;jettySize=auto;html=1;exitX=0.5;exitY=1;exitDx=0;exitDy=0;entryX=0.5;entryY=0;entryDx=0;entryDy=0;strokeColor=#A8201A;" parent="dY0yFO3wvzVGIZuMnCoH-1" source="OnQcYnKIbqPXPp1BFBYC-2" target="ZFVOxyljPK9OZKZ5roBa-0" edge="1">
          <mxGeometry relative="1" as="geometry" />
        </mxCell>
        <mxCell id="OnQcYnKIbqPXPp1BFBYC-2" value="&lt;div&gt;&lt;b&gt;Create CPir &lt;/b&gt;&lt;i&gt;pir&lt;/i&gt;&lt;br&gt;&lt;/div&gt;" style="rounded=0;whiteSpace=wrap;html=1;sketch=0;fontColor=#143642;strokeColor=#0F8B8D;fillColor=#FAE5C7;fontFamily=Helvetica;align=center;" parent="dY0yFO3wvzVGIZuMnCoH-1" vertex="1">
          <mxGeometry x="345" y="140" width="160" height="30" as="geometry" />
        </mxCell>
        <mxCell id="-U9VWXAn4EiaNN1BEUiG-0" value="end" style="ellipse;whiteSpace=wrap;html=1;fillColor=#FAE5C7;strokeColor=#0F8B8D;fontColor=#143642;fontStyle=1" parent="dY0yFO3wvzVGIZuMnCoH-1" vertex="1">
          <mxGeometry x="401" y="370" width="48" height="30" as="geometry" />
        </mxCell>
        <mxCell id="jv_c10XiMa1QM72tJMU1-2" style="edgeStyle=orthogonalEdgeStyle;rounded=0;orthogonalLoop=1;jettySize=auto;html=1;exitX=0.5;exitY=1;exitDx=0;exitDy=0;entryX=0.5;entryY=0;entryDx=0;entryDy=0;strokeColor=#A8201A;" parent="dY0yFO3wvzVGIZuMnCoH-1" source="jv_c10XiMa1QM72tJMU1-0" edge="1">
          <mxGeometry relative="1" as="geometry">
            <mxPoint x="425" y="380" as="targetPoint" />
          </mxGeometry>
        </mxCell>
        <mxCell id="jv_c10XiMa1QM72tJMU1-0" value="&lt;div&gt;&lt;b&gt;Create &lt;/b&gt;&lt;i&gt;tReadLdr&lt;/i&gt;&lt;br&gt;&lt;/div&gt;" style="rounded=0;whiteSpace=wrap;html=1;sketch=0;fontColor=#143642;strokeColor=#0F8B8D;fillColor=#FAE5C7;fontFamily=Helvetica;align=center;" parent="dY0yFO3wvzVGIZuMnCoH-1" vertex="1">
          <mxGeometry x="345" y="320" width="160" height="30" as="geometry" />
        </mxCell>
        <mxCell id="ZFVOxyljPK9OZKZ5roBa-2" style="edgeStyle=orthogonalEdgeStyle;rounded=0;orthogonalLoop=1;jettySize=auto;html=1;exitX=0.5;exitY=1;exitDx=0;exitDy=0;entryX=0.5;entryY=0;entryDx=0;entryDy=0;strokeColor=#A8201A;" edge="1" parent="dY0yFO3wvzVGIZuMnCoH-1" source="ZFVOxyljPK9OZKZ5roBa-0" target="dY0yFO3wvzVGIZuMnCoH-3">
          <mxGeometry relative="1" as="geometry" />
        </mxCell>
        <mxCell id="ZFVOxyljPK9OZKZ5roBa-0" value="&lt;div&gt;&lt;b&gt;Create CFailureDetector &lt;/b&gt;&lt;i&gt;lampf&lt;/i&gt;&lt;b&gt; &lt;br&gt;&lt;/b&gt;&lt;/div&gt;" style="rounded=0;whiteSpace=wrap;html=1;sketch=0;fontColor=#143642;strokeColor=#0F8B8D;fillColor=#FAE5C7;fontFamily=Helvetica;align=center;" vertex="1" parent="dY0yFO3wvzVGIZuMnCoH-1">
          <mxGeometry x="345" y="190" width="160" height="40" as="geometry" />
        </mxCell>
      </root>
    </mxGraphModel>
  </diagram>
  <diagram id="njHMV8kPld7CXhNWZW5Z" name="run">
    <mxGraphModel dx="540" dy="306" grid="1" gridSize="10" guides="1" tooltips="1" connect="1" arrows="1" fold="1" page="1" pageScale="1" pageWidth="850" pageHeight="1100" math="0" shadow="0">
      <root>
        <mxCell id="8f1CIgyUeircamB1Tvem-0" />
        <mxCell id="8f1CIgyUeircamB1Tvem-1" parent="8f1CIgyUeircamB1Tvem-0" />
        <mxCell id="UV2Amg9p5ugO5gDsTTpo-1" style="edgeStyle=orthogonalEdgeStyle;rounded=0;orthogonalLoop=1;jettySize=auto;html=1;exitX=0.5;exitY=1;exitDx=0;exitDy=0;entryX=0.5;entryY=0;entryDx=0;entryDy=0;strokeColor=#A8201A;" parent="8f1CIgyUeircamB1Tvem-1" source="8f1CIgyUeircamB1Tvem-2" target="UV2Amg9p5ugO5gDsTTpo-0" edge="1">
          <mxGeometry relative="1" as="geometry" />
        </mxCell>
        <mxCell id="8f1CIgyUeircamB1Tvem-2" value="&lt;div&gt;&lt;b&gt;Join &lt;/b&gt;&lt;i&gt;tReadLdr&lt;/i&gt;&lt;/div&gt;" style="rounded=0;whiteSpace=wrap;html=1;sketch=0;fontColor=#143642;strokeColor=#0F8B8D;fillColor=#FAE5C7;fontFamily=Helvetica;align=center;" parent="8f1CIgyUeircamB1Tvem-1" vertex="1">
          <mxGeometry x="345" y="200" width="160" height="30" as="geometry" />
        </mxCell>
        <mxCell id="9rgZsYF5ijI-qCmeDJ5R-1" style="edgeStyle=orthogonalEdgeStyle;rounded=0;orthogonalLoop=1;jettySize=auto;html=1;exitX=0.5;exitY=1;exitDx=0;exitDy=0;entryX=0.5;entryY=0;entryDx=0;entryDy=0;strokeColor=#A8201A;" parent="8f1CIgyUeircamB1Tvem-1" source="9rgZsYF5ijI-qCmeDJ5R-0" edge="1">
          <mxGeometry relative="1" as="geometry">
            <mxPoint x="425" y="150" as="targetPoint" />
          </mxGeometry>
        </mxCell>
        <mxCell id="9rgZsYF5ijI-qCmeDJ5R-0" value="Run" style="ellipse;whiteSpace=wrap;html=1;fontFamily=Helvetica;fillColor=#FAE5C7;strokeColor=#0F8B8D;fontColor=#143642;fontStyle=1" parent="8f1CIgyUeircamB1Tvem-1" vertex="1">
          <mxGeometry x="374.99999999999994" y="70" width="100" height="50" as="geometry" />
        </mxCell>
        <mxCell id="UV2Amg9p5ugO5gDsTTpo-0" value="end" style="ellipse;whiteSpace=wrap;html=1;fillColor=#FAE5C7;strokeColor=#0F8B8D;fontColor=#143642;fontStyle=1" parent="8f1CIgyUeircamB1Tvem-1" vertex="1">
          <mxGeometry x="401" y="250" width="48" height="30" as="geometry" />
        </mxCell>
        <mxCell id="qszvlfSGNgG7UL-0clkH-1" style="edgeStyle=orthogonalEdgeStyle;rounded=0;orthogonalLoop=1;jettySize=auto;html=1;exitX=0.5;exitY=1;exitDx=0;exitDy=0;entryX=0.5;entryY=0;entryDx=0;entryDy=0;strokeColor=#A8201A;" parent="8f1CIgyUeircamB1Tvem-1" source="qszvlfSGNgG7UL-0clkH-2" edge="1">
          <mxGeometry relative="1" as="geometry">
            <mxPoint x="425" y="200" as="targetPoint" />
          </mxGeometry>
        </mxCell>
        <mxCell id="qszvlfSGNgG7UL-0clkH-2" value="setTimer(&lt;span style=&quot;font-weight: normal&quot;&gt;&lt;i&gt;timReadLdr)&lt;/i&gt;&lt;/span&gt;" style="shape=process;whiteSpace=wrap;html=1;backgroundOutline=1;rounded=0;sketch=0;fontColor=#143642;strokeColor=#0F8B8D;fillColor=#FAE5C7;fontStyle=1;size=0.09375;" parent="8f1CIgyUeircamB1Tvem-1" vertex="1">
          <mxGeometry x="345" y="150" width="160" height="30" as="geometry" />
        </mxCell>
      </root>
    </mxGraphModel>
  </diagram>
  <diagram id="Jk55HIMvydQ56T4ev-SA" name="sendcmd">
    <mxGraphModel dx="540" dy="306" grid="1" gridSize="10" guides="1" tooltips="1" connect="1" arrows="1" fold="1" page="1" pageScale="1" pageWidth="850" pageHeight="1100" math="0" shadow="0">
      <root>
        <mxCell id="_E8ncHfvz8yd1UJj6TRe-0" />
        <mxCell id="_E8ncHfvz8yd1UJj6TRe-1" parent="_E8ncHfvz8yd1UJj6TRe-0" />
        <mxCell id="_E8ncHfvz8yd1UJj6TRe-2" value="Send &lt;span style=&quot;font-weight: normal&quot;&gt;&lt;i&gt;cmd &lt;/i&gt;&lt;/span&gt;to &lt;span style=&quot;font-weight: normal&quot;&gt;&lt;i&gt;msgqSensors&lt;/i&gt;&lt;/span&gt;" style="shape=process;whiteSpace=wrap;html=1;backgroundOutline=1;rounded=0;sketch=0;fontColor=#143642;strokeColor=#0F8B8D;fillColor=#FAE5C7;fontStyle=1;size=0;" parent="_E8ncHfvz8yd1UJj6TRe-1" vertex="1">
          <mxGeometry x="340" y="80" width="170" height="30" as="geometry" />
        </mxCell>
        <mxCell id="_E8ncHfvz8yd1UJj6TRe-3" style="edgeStyle=orthogonalEdgeStyle;curved=0;rounded=1;sketch=0;orthogonalLoop=1;jettySize=auto;html=1;exitX=0.5;exitY=1;exitDx=0;exitDy=0;entryX=0.5;entryY=0;entryDx=0;entryDy=0;fontColor=#143642;strokeColor=#A8201A;fillColor=#FAE5C7;" parent="_E8ncHfvz8yd1UJj6TRe-1" source="_E8ncHfvz8yd1UJj6TRe-2" target="_E8ncHfvz8yd1UJj6TRe-5" edge="1">
          <mxGeometry relative="1" as="geometry">
            <mxPoint x="439.7900000000002" y="110" as="sourcePoint" />
            <mxPoint x="429.68000000000006" y="130" as="targetPoint" />
          </mxGeometry>
        </mxCell>
        <mxCell id="_E8ncHfvz8yd1UJj6TRe-4" style="edgeStyle=orthogonalEdgeStyle;curved=0;rounded=1;sketch=0;orthogonalLoop=1;jettySize=auto;html=1;exitX=0.5;exitY=1;exitDx=0;exitDy=0;entryX=0.5;entryY=0;entryDx=0;entryDy=0;fontColor=#143642;strokeColor=#A8201A;fillColor=#FAE5C7;" parent="_E8ncHfvz8yd1UJj6TRe-1" source="_E8ncHfvz8yd1UJj6TRe-5" target="_E8ncHfvz8yd1UJj6TRe-8" edge="1">
          <mxGeometry relative="1" as="geometry" />
        </mxCell>
        <mxCell id="_E8ncHfvz8yd1UJj6TRe-5" value="sendSignal(&lt;span style=&quot;font-weight: normal&quot;&gt;&lt;i&gt;mainPID, SIGUSR1)&lt;br&gt;&lt;/i&gt;&lt;/span&gt;" style="shape=process;whiteSpace=wrap;html=1;backgroundOutline=1;rounded=0;sketch=0;fontColor=#143642;strokeColor=#0F8B8D;fillColor=#FAE5C7;fontStyle=1" parent="_E8ncHfvz8yd1UJj6TRe-1" vertex="1">
          <mxGeometry x="340" y="130" width="170" height="30" as="geometry" />
        </mxCell>
        <mxCell id="_E8ncHfvz8yd1UJj6TRe-6" style="edgeStyle=orthogonalEdgeStyle;curved=0;rounded=1;sketch=0;orthogonalLoop=1;jettySize=auto;html=1;exitX=0.5;exitY=1;exitDx=0;exitDy=0;entryX=0.5;entryY=0;entryDx=0;entryDy=0;fontColor=#143642;strokeColor=#A8201A;fillColor=#FAE5C7;" parent="_E8ncHfvz8yd1UJj6TRe-1" source="_E8ncHfvz8yd1UJj6TRe-7" target="_E8ncHfvz8yd1UJj6TRe-2" edge="1">
          <mxGeometry relative="1" as="geometry" />
        </mxCell>
        <mxCell id="_E8ncHfvz8yd1UJj6TRe-7" value="&lt;div&gt;sendCmd&lt;/div&gt;&lt;div&gt;&lt;br&gt;&lt;/div&gt;&lt;div&gt;IN: &lt;i&gt;&lt;span style=&quot;font-weight: normal&quot;&gt;cmd&lt;/span&gt;&lt;/i&gt;&lt;br&gt;&lt;/div&gt;" style="ellipse;whiteSpace=wrap;html=1;fontFamily=Helvetica;fillColor=#FAE5C7;strokeColor=#0F8B8D;fontColor=#143642;fontStyle=1" parent="_E8ncHfvz8yd1UJj6TRe-1" vertex="1">
          <mxGeometry x="374.99999999999994" y="10" width="100" height="50" as="geometry" />
        </mxCell>
        <mxCell id="_E8ncHfvz8yd1UJj6TRe-8" value="end" style="ellipse;whiteSpace=wrap;html=1;fontFamily=Helvetica;fillColor=#FAE5C7;strokeColor=#0F8B8D;fontColor=#143642;fontStyle=1" parent="_E8ncHfvz8yd1UJj6TRe-1" vertex="1">
          <mxGeometry x="398" y="180" width="55" height="30" as="geometry" />
        </mxCell>
      </root>
    </mxGraphModel>
  </diagram>
  <diagram id="1QlWFhlJIF0aSkWKEbih" name="treadldr">
    <mxGraphModel dx="931" dy="527" grid="1" gridSize="10" guides="1" tooltips="1" connect="1" arrows="1" fold="1" page="1" pageScale="1" pageWidth="850" pageHeight="1100" math="0" shadow="0">
      <root>
        <mxCell id="fUM5ReKku75ZZo18DiIR-0" />
        <mxCell id="fUM5ReKku75ZZo18DiIR-1" parent="fUM5ReKku75ZZo18DiIR-0" />
        <mxCell id="fUM5ReKku75ZZo18DiIR-2" value="" style="edgeStyle=orthogonalEdgeStyle;rounded=1;orthogonalLoop=1;jettySize=auto;html=1;strokeColor=#A8201A;fontFamily=Helvetica;labelBackgroundColor=#DAD2D8;fontColor=#143642;entryX=0.5;entryY=0;entryDx=0;entryDy=0;startArrow=none;" parent="fUM5ReKku75ZZo18DiIR-1" source="fUM5ReKku75ZZo18DiIR-20" target="fUM5ReKku75ZZo18DiIR-25" edge="1">
          <mxGeometry relative="1" as="geometry">
            <mxPoint x="299.6199999999999" y="320" as="targetPoint" />
            <Array as="points" />
          </mxGeometry>
        </mxCell>
        <mxCell id="fUM5ReKku75ZZo18DiIR-3" style="edgeStyle=orthogonalEdgeStyle;curved=0;rounded=1;sketch=0;orthogonalLoop=1;jettySize=auto;html=1;exitX=0.5;exitY=1;exitDx=0;exitDy=0;entryX=0.5;entryY=0;entryDx=0;entryDy=0;fontColor=#143642;strokeColor=#A8201A;fillColor=#FAE5C7;" parent="fUM5ReKku75ZZo18DiIR-1" source="fUM5ReKku75ZZo18DiIR-4" target="fUM5ReKku75ZZo18DiIR-29" edge="1">
          <mxGeometry relative="1" as="geometry" />
        </mxCell>
        <mxCell id="fUM5ReKku75ZZo18DiIR-4" value="tReadLdr" style="ellipse;whiteSpace=wrap;html=1;fontFamily=Helvetica;fillColor=#FAE5C7;strokeColor=#0F8B8D;fontColor=#143642;fontStyle=1" parent="fUM5ReKku75ZZo18DiIR-1" vertex="1">
          <mxGeometry x="249.61999999999995" y="60" width="100" height="50" as="geometry" />
        </mxCell>
        <mxCell id="fUM5ReKku75ZZo18DiIR-6" value="&lt;i&gt;luxState != oldLuxState?&lt;br&gt;&lt;/i&gt;" style="rhombus;whiteSpace=wrap;html=1;rounded=0;sketch=0;fontColor=#143642;strokeColor=#0F8B8D;fillColor=#FAE5C7;" parent="fUM5ReKku75ZZo18DiIR-1" vertex="1">
          <mxGeometry x="250" y="440" width="100" height="90" as="geometry" />
        </mxCell>
        <mxCell id="fUM5ReKku75ZZo18DiIR-7" value="Returns &lt;i&gt;luxState&lt;/i&gt;" style="edgeStyle=orthogonalEdgeStyle;curved=0;rounded=1;sketch=0;orthogonalLoop=1;jettySize=auto;html=1;entryX=0.5;entryY=0;entryDx=0;entryDy=0;fontColor=#143642;strokeColor=#A8201A;fillColor=#FAE5C7;exitX=0.5;exitY=1;exitDx=0;exitDy=0;" parent="fUM5ReKku75ZZo18DiIR-1" source="fUM5ReKku75ZZo18DiIR-21" target="fUM5ReKku75ZZo18DiIR-27" edge="1">
          <mxGeometry relative="1" as="geometry">
            <mxPoint x="290.21000000000004" y="370" as="sourcePoint" />
          </mxGeometry>
        </mxCell>
        <mxCell id="fUM5ReKku75ZZo18DiIR-8" style="edgeStyle=orthogonalEdgeStyle;curved=0;rounded=1;sketch=0;orthogonalLoop=1;jettySize=auto;html=1;exitX=0;exitY=0.5;exitDx=0;exitDy=0;entryX=0.5;entryY=0;entryDx=0;entryDy=0;fontColor=#143642;strokeColor=#A8201A;fillColor=#FAE5C7;" parent="fUM5ReKku75ZZo18DiIR-1" source="fUM5ReKku75ZZo18DiIR-6" target="a-3s-S4ITJwim3se-Trl-13" edge="1">
          <mxGeometry relative="1" as="geometry">
            <mxPoint x="250.21000000000004" y="510" as="sourcePoint" />
            <mxPoint x="179.6199999999999" y="530" as="targetPoint" />
            <Array as="points">
              <mxPoint x="200" y="485" />
            </Array>
          </mxGeometry>
        </mxCell>
        <mxCell id="fUM5ReKku75ZZo18DiIR-9" value="Yes" style="edgeLabel;html=1;align=center;verticalAlign=middle;resizable=0;points=[];fontColor=#143642;" parent="fUM5ReKku75ZZo18DiIR-8" vertex="1" connectable="0">
          <mxGeometry x="-0.647" y="-2" relative="1" as="geometry">
            <mxPoint as="offset" />
          </mxGeometry>
        </mxCell>
        <mxCell id="fUM5ReKku75ZZo18DiIR-10" style="edgeStyle=orthogonalEdgeStyle;curved=0;rounded=1;sketch=0;orthogonalLoop=1;jettySize=auto;html=1;exitX=1;exitY=0.5;exitDx=0;exitDy=0;fontColor=#143642;strokeColor=#A8201A;fillColor=#FAE5C7;entryX=0.5;entryY=0;entryDx=0;entryDy=0;" parent="fUM5ReKku75ZZo18DiIR-1" source="fUM5ReKku75ZZo18DiIR-6" target="fUM5ReKku75ZZo18DiIR-15" edge="1">
          <mxGeometry relative="1" as="geometry">
            <mxPoint x="350.21000000000026" y="510" as="sourcePoint" />
            <mxPoint x="370" y="690" as="targetPoint" />
            <Array as="points">
              <mxPoint x="400" y="485" />
            </Array>
          </mxGeometry>
        </mxCell>
        <mxCell id="fUM5ReKku75ZZo18DiIR-11" value="No" style="edgeLabel;html=1;align=center;verticalAlign=middle;resizable=0;points=[];fontColor=#143642;" parent="fUM5ReKku75ZZo18DiIR-10" vertex="1" connectable="0">
          <mxGeometry x="-0.5718" y="1" relative="1" as="geometry">
            <mxPoint x="-8" y="1" as="offset" />
          </mxGeometry>
        </mxCell>
        <mxCell id="fUM5ReKku75ZZo18DiIR-15" value="2" style="ellipse;whiteSpace=wrap;html=1;fontFamily=Helvetica;fillColor=#FAE5C7;strokeColor=#0F8B8D;fontColor=#143642;fontStyle=1" parent="fUM5ReKku75ZZo18DiIR-1" vertex="1">
          <mxGeometry x="390.00000000000006" y="540" width="20" height="20" as="geometry" />
        </mxCell>
        <mxCell id="fUM5ReKku75ZZo18DiIR-18" style="edgeStyle=orthogonalEdgeStyle;curved=0;rounded=1;sketch=0;orthogonalLoop=1;jettySize=auto;html=1;exitX=0;exitY=0.5;exitDx=0;exitDy=0;entryX=1;entryY=0.5;entryDx=0;entryDy=0;fontColor=#143642;strokeColor=#A8201A;fillColor=#FAE5C7;" parent="fUM5ReKku75ZZo18DiIR-1" source="fUM5ReKku75ZZo18DiIR-19" target="fUM5ReKku75ZZo18DiIR-20" edge="1">
          <mxGeometry relative="1" as="geometry" />
        </mxCell>
        <mxCell id="fUM5ReKku75ZZo18DiIR-19" value="2" style="ellipse;whiteSpace=wrap;html=1;fontFamily=Helvetica;fillColor=#FAE5C7;strokeColor=#0F8B8D;fontColor=#143642;fontStyle=1" parent="fUM5ReKku75ZZo18DiIR-1" vertex="1">
          <mxGeometry x="404.99999999999994" y="190" width="20" height="20" as="geometry" />
        </mxCell>
        <mxCell id="fUM5ReKku75ZZo18DiIR-20" value="" style="ellipse;whiteSpace=wrap;html=1;fontFamily=Helvetica;fillColor=#FAE5C7;strokeColor=#0F8B8D;fontColor=#143642;fontStyle=1" parent="fUM5ReKku75ZZo18DiIR-1" vertex="1">
          <mxGeometry x="290.00000000000006" y="190" width="20" height="20" as="geometry" />
        </mxCell>
        <mxCell id="fUM5ReKku75ZZo18DiIR-21" value="&lt;span style=&quot;font-weight: normal&quot;&gt;&lt;i&gt;ldr.&lt;/i&gt;&lt;/span&gt;getLuxState()" style="shape=process;whiteSpace=wrap;html=1;backgroundOutline=1;rounded=0;sketch=0;fontColor=#143642;strokeColor=#0F8B8D;fillColor=#FAE5C7;fontStyle=1" parent="fUM5ReKku75ZZo18DiIR-1" vertex="1">
          <mxGeometry x="230" y="330" width="140" height="30" as="geometry" />
        </mxCell>
        <mxCell id="fUM5ReKku75ZZo18DiIR-22" style="edgeStyle=orthogonalEdgeStyle;curved=0;rounded=1;sketch=0;orthogonalLoop=1;jettySize=auto;html=1;exitX=0.5;exitY=1;exitDx=0;exitDy=0;entryX=0.5;entryY=0;entryDx=0;entryDy=0;fontColor=#143642;strokeColor=#A8201A;fillColor=#FAE5C7;" parent="fUM5ReKku75ZZo18DiIR-1" source="fUM5ReKku75ZZo18DiIR-23" target="fUM5ReKku75ZZo18DiIR-21" edge="1">
          <mxGeometry relative="1" as="geometry" />
        </mxCell>
        <mxCell id="fUM5ReKku75ZZo18DiIR-23" value="&lt;b&gt;Wait&lt;/b&gt; for &lt;i&gt;condReadLdr&lt;/i&gt;" style="rounded=0;whiteSpace=wrap;html=1;sketch=0;fontColor=#143642;strokeColor=#0F8B8D;fillColor=#FAE5C7;fontFamily=Helvetica;" parent="fUM5ReKku75ZZo18DiIR-1" vertex="1">
          <mxGeometry x="229.73000000000002" y="280" width="140" height="30" as="geometry" />
        </mxCell>
        <mxCell id="fUM5ReKku75ZZo18DiIR-24" style="edgeStyle=orthogonalEdgeStyle;curved=0;rounded=1;sketch=0;orthogonalLoop=1;jettySize=auto;html=1;exitX=0.5;exitY=1;exitDx=0;exitDy=0;fontColor=#143642;strokeColor=#A8201A;fillColor=#FAE5C7;" parent="fUM5ReKku75ZZo18DiIR-1" source="fUM5ReKku75ZZo18DiIR-25" target="fUM5ReKku75ZZo18DiIR-23" edge="1">
          <mxGeometry relative="1" as="geometry" />
        </mxCell>
        <mxCell id="fUM5ReKku75ZZo18DiIR-25" value="&lt;b&gt;Lock&lt;/b&gt; &lt;i&gt;mutReadLdr&lt;/i&gt;" style="rounded=0;whiteSpace=wrap;html=1;sketch=0;fontColor=#143642;strokeColor=#0F8B8D;fillColor=#FAE5C7;fontFamily=Helvetica;" parent="fUM5ReKku75ZZo18DiIR-1" vertex="1">
          <mxGeometry x="229.51" y="230" width="140" height="30" as="geometry" />
        </mxCell>
        <mxCell id="fUM5ReKku75ZZo18DiIR-26" style="edgeStyle=orthogonalEdgeStyle;curved=0;rounded=1;sketch=0;orthogonalLoop=1;jettySize=auto;html=1;exitX=0.5;exitY=1;exitDx=0;exitDy=0;entryX=0.5;entryY=0;entryDx=0;entryDy=0;fontColor=#143642;strokeColor=#A8201A;fillColor=#FAE5C7;" parent="fUM5ReKku75ZZo18DiIR-1" source="fUM5ReKku75ZZo18DiIR-27" target="fUM5ReKku75ZZo18DiIR-6" edge="1">
          <mxGeometry relative="1" as="geometry" />
        </mxCell>
        <mxCell id="fUM5ReKku75ZZo18DiIR-27" value="&lt;b&gt;Unlock&lt;/b&gt; &lt;i&gt;mutReadLdr&lt;/i&gt;" style="rounded=0;whiteSpace=wrap;html=1;sketch=0;fontColor=#143642;strokeColor=#0F8B8D;fillColor=#FAE5C7;fontFamily=Helvetica;" parent="fUM5ReKku75ZZo18DiIR-1" vertex="1">
          <mxGeometry x="230" y="390" width="140" height="30" as="geometry" />
        </mxCell>
        <mxCell id="fUM5ReKku75ZZo18DiIR-28" style="edgeStyle=orthogonalEdgeStyle;curved=0;rounded=1;sketch=0;orthogonalLoop=1;jettySize=auto;html=1;exitX=0.5;exitY=1;exitDx=0;exitDy=0;entryX=0.5;entryY=0;entryDx=0;entryDy=0;fontSize=10;fontColor=#143642;strokeColor=#A8201A;fillColor=#FAE5C7;" parent="fUM5ReKku75ZZo18DiIR-1" source="fUM5ReKku75ZZo18DiIR-29" target="fUM5ReKku75ZZo18DiIR-20" edge="1">
          <mxGeometry relative="1" as="geometry" />
        </mxCell>
        <mxCell id="fUM5ReKku75ZZo18DiIR-29" value="&lt;i&gt;oldLuxState &amp;lt;- DAY&lt;br&gt;&lt;/i&gt;" style="rounded=0;whiteSpace=wrap;html=1;sketch=0;fontColor=#143642;strokeColor=#0F8B8D;fillColor=#FAE5C7;fontFamily=Helvetica;" parent="fUM5ReKku75ZZo18DiIR-1" vertex="1">
          <mxGeometry x="230" y="140" width="140" height="30" as="geometry" />
        </mxCell>
        <mxCell id="fUM5ReKku75ZZo18DiIR-30" value="" style="endArrow=none;dashed=1;html=1;dashPattern=1 3;strokeWidth=2;rounded=1;sketch=0;fontColor=#143642;fillColor=#FAE5C7;curved=0;entryX=0;entryY=0.5;entryDx=0;entryDy=0;exitX=0;exitY=0;exitDx=110;exitDy=30.5;exitPerimeter=0;" parent="fUM5ReKku75ZZo18DiIR-1" source="fUM5ReKku75ZZo18DiIR-31" target="fUM5ReKku75ZZo18DiIR-29" edge="1">
          <mxGeometry width="50" height="50" relative="1" as="geometry">
            <mxPoint x="150" y="200" as="sourcePoint" />
            <mxPoint x="210" y="205" as="targetPoint" />
          </mxGeometry>
        </mxCell>
        <mxCell id="fUM5ReKku75ZZo18DiIR-31" value="Create and initialize a &lt;b&gt;LuxState &lt;/b&gt;type variable with a random state " style="shape=note;whiteSpace=wrap;html=1;backgroundOutline=1;darkOpacity=0.05;rounded=0;sketch=0;fontColor=#143642;strokeColor=#0F8B8D;fillColor=#FAE5C7;size=11;fontSize=10;" parent="fUM5ReKku75ZZo18DiIR-1" vertex="1">
          <mxGeometry x="90" y="100" width="110" height="50" as="geometry" />
        </mxCell>
        <mxCell id="a-3s-S4ITJwim3se-Trl-0" value="" style="edgeStyle=orthogonalEdgeStyle;rounded=1;orthogonalLoop=1;jettySize=auto;html=1;strokeColor=#A8201A;fontFamily=Helvetica;labelBackgroundColor=#DAD2D8;fontColor=#143642;entryX=0;entryY=0.5;entryDx=0;entryDy=0;exitX=0.5;exitY=1;exitDx=0;exitDy=0;" edge="1" parent="fUM5ReKku75ZZo18DiIR-1" source="XsKtpCF5G8jJLxnXBGVP-0" target="a-3s-S4ITJwim3se-Trl-9">
          <mxGeometry relative="1" as="geometry">
            <mxPoint x="523.75" y="340" as="sourcePoint" />
          </mxGeometry>
        </mxCell>
        <mxCell id="a-3s-S4ITJwim3se-Trl-1" value="&lt;i&gt;luxState = NIGHT?&lt;br&gt;&lt;/i&gt;" style="rhombus;whiteSpace=wrap;html=1;rounded=0;sketch=0;fontColor=#143642;strokeColor=#0F8B8D;fillColor=#FAE5C7;" vertex="1" parent="fUM5ReKku75ZZo18DiIR-1">
          <mxGeometry x="548.75" y="185" width="100" height="90" as="geometry" />
        </mxCell>
        <mxCell id="a-3s-S4ITJwim3se-Trl-2" style="edgeStyle=orthogonalEdgeStyle;curved=0;rounded=1;sketch=0;orthogonalLoop=1;jettySize=auto;html=1;exitX=0;exitY=0.5;exitDx=0;exitDy=0;entryX=0.5;entryY=0;entryDx=0;entryDy=0;fontColor=#143642;strokeColor=#A8201A;fillColor=#FAE5C7;" edge="1" parent="fUM5ReKku75ZZo18DiIR-1" source="a-3s-S4ITJwim3se-Trl-1" target="a-3s-S4ITJwim3se-Trl-23">
          <mxGeometry relative="1" as="geometry">
            <mxPoint x="548.96" y="255" as="sourcePoint" />
            <mxPoint x="478.3699999999999" y="275" as="targetPoint" />
          </mxGeometry>
        </mxCell>
        <mxCell id="a-3s-S4ITJwim3se-Trl-3" value="Yes" style="edgeLabel;html=1;align=center;verticalAlign=middle;resizable=0;points=[];fontColor=#143642;" vertex="1" connectable="0" parent="a-3s-S4ITJwim3se-Trl-2">
          <mxGeometry x="-0.647" y="-2" relative="1" as="geometry">
            <mxPoint x="-6" y="2" as="offset" />
          </mxGeometry>
        </mxCell>
        <mxCell id="a-3s-S4ITJwim3se-Trl-4" style="edgeStyle=orthogonalEdgeStyle;curved=0;rounded=1;sketch=0;orthogonalLoop=1;jettySize=auto;html=1;exitX=1;exitY=0.5;exitDx=0;exitDy=0;fontColor=#143642;strokeColor=#A8201A;fillColor=#FAE5C7;entryX=0.5;entryY=0;entryDx=0;entryDy=0;" edge="1" parent="fUM5ReKku75ZZo18DiIR-1" source="a-3s-S4ITJwim3se-Trl-1" target="a-3s-S4ITJwim3se-Trl-24">
          <mxGeometry relative="1" as="geometry">
            <mxPoint x="648.9600000000003" y="255" as="sourcePoint" />
            <mxPoint x="668.75" y="435" as="targetPoint" />
            <Array as="points">
              <mxPoint x="693.75" y="230" />
            </Array>
          </mxGeometry>
        </mxCell>
        <mxCell id="a-3s-S4ITJwim3se-Trl-5" value="No" style="edgeLabel;html=1;align=center;verticalAlign=middle;resizable=0;points=[];fontColor=#143642;" vertex="1" connectable="0" parent="a-3s-S4ITJwim3se-Trl-4">
          <mxGeometry x="-0.5718" y="1" relative="1" as="geometry">
            <mxPoint x="3" y="1" as="offset" />
          </mxGeometry>
        </mxCell>
        <mxCell id="a-3s-S4ITJwim3se-Trl-9" value="" style="ellipse;whiteSpace=wrap;html=1;fontFamily=Helvetica;fillColor=#FAE5C7;strokeColor=#0F8B8D;fontColor=#143642;fontStyle=1" vertex="1" parent="fUM5ReKku75ZZo18DiIR-1">
          <mxGeometry x="588.3700000000001" y="407.5" width="20" height="20" as="geometry" />
        </mxCell>
        <mxCell id="a-3s-S4ITJwim3se-Trl-13" value="1" style="ellipse;whiteSpace=wrap;html=1;fontFamily=Helvetica;fillColor=#FAE5C7;strokeColor=#0F8B8D;fontColor=#143642;fontStyle=1" vertex="1" parent="fUM5ReKku75ZZo18DiIR-1">
          <mxGeometry x="190.00000000000006" y="540" width="20" height="20" as="geometry" />
        </mxCell>
        <mxCell id="a-3s-S4ITJwim3se-Trl-26" style="edgeStyle=orthogonalEdgeStyle;rounded=1;orthogonalLoop=1;jettySize=auto;html=1;exitX=0.5;exitY=1;exitDx=0;exitDy=0;entryX=0.5;entryY=0;entryDx=0;entryDy=0;strokeColor=#A8201A;" edge="1" parent="fUM5ReKku75ZZo18DiIR-1" source="a-3s-S4ITJwim3se-Trl-14" target="a-3s-S4ITJwim3se-Trl-1">
          <mxGeometry relative="1" as="geometry" />
        </mxCell>
        <mxCell id="a-3s-S4ITJwim3se-Trl-14" value="1" style="ellipse;whiteSpace=wrap;html=1;fontFamily=Helvetica;fillColor=#FAE5C7;strokeColor=#0F8B8D;fontColor=#143642;fontStyle=1" vertex="1" parent="fUM5ReKku75ZZo18DiIR-1">
          <mxGeometry x="588.7500000000001" y="100" width="20" height="20" as="geometry" />
        </mxCell>
        <mxCell id="a-3s-S4ITJwim3se-Trl-16" style="edgeStyle=orthogonalEdgeStyle;curved=0;rounded=1;sketch=0;orthogonalLoop=1;jettySize=auto;html=1;exitX=0.5;exitY=1;exitDx=0;exitDy=0;entryX=0.5;entryY=0;entryDx=0;entryDy=0;fontColor=#143642;strokeColor=#A8201A;fillColor=#FAE5C7;" edge="1" parent="fUM5ReKku75ZZo18DiIR-1" source="a-3s-S4ITJwim3se-Trl-9" target="a-3s-S4ITJwim3se-Trl-17">
          <mxGeometry relative="1" as="geometry">
            <mxPoint x="598.5600000000002" y="482.4999999999999" as="sourcePoint" />
          </mxGeometry>
        </mxCell>
        <mxCell id="a-3s-S4ITJwim3se-Trl-21" style="edgeStyle=orthogonalEdgeStyle;rounded=0;orthogonalLoop=1;jettySize=auto;html=1;exitX=0.5;exitY=1;exitDx=0;exitDy=0;entryX=0.5;entryY=0;entryDx=0;entryDy=0;strokeColor=#A8201A;" edge="1" parent="fUM5ReKku75ZZo18DiIR-1" source="a-3s-S4ITJwim3se-Trl-17" target="a-3s-S4ITJwim3se-Trl-20">
          <mxGeometry relative="1" as="geometry" />
        </mxCell>
        <mxCell id="a-3s-S4ITJwim3se-Trl-17" value="&lt;i&gt;oldLuxState &amp;lt;- luxState&lt;/i&gt;" style="rounded=0;whiteSpace=wrap;html=1;sketch=0;fontColor=#143642;strokeColor=#0F8B8D;fillColor=#FAE5C7;fontFamily=Helvetica;" vertex="1" parent="fUM5ReKku75ZZo18DiIR-1">
          <mxGeometry x="528.5600000000001" y="450" width="140.38" height="30" as="geometry" />
        </mxCell>
        <mxCell id="a-3s-S4ITJwim3se-Trl-20" value="2" style="ellipse;whiteSpace=wrap;html=1;fontFamily=Helvetica;fillColor=#FAE5C7;strokeColor=#0F8B8D;fontColor=#143642;fontStyle=1" vertex="1" parent="fUM5ReKku75ZZo18DiIR-1">
          <mxGeometry x="588.3700000000001" y="540" width="20" height="20" as="geometry" />
        </mxCell>
        <mxCell id="UOS7pjdWiTksZDZ3hv5A-2" style="edgeStyle=orthogonalEdgeStyle;rounded=1;orthogonalLoop=1;jettySize=auto;html=1;exitX=0.5;exitY=1;exitDx=0;exitDy=0;entryX=0.5;entryY=0;entryDx=0;entryDy=0;strokeColor=#A8201A;" edge="1" parent="fUM5ReKku75ZZo18DiIR-1" source="a-3s-S4ITJwim3se-Trl-23" target="UOS7pjdWiTksZDZ3hv5A-0">
          <mxGeometry relative="1" as="geometry" />
        </mxCell>
        <mxCell id="a-3s-S4ITJwim3se-Trl-23" value="&lt;i&gt;&lt;span style=&quot;font-weight: normal&quot;&gt;lampf.&lt;/span&gt;&lt;/i&gt;enable()" style="shape=process;whiteSpace=wrap;html=1;backgroundOutline=1;rounded=0;sketch=0;fontColor=#143642;strokeColor=#0F8B8D;fillColor=#FAE5C7;fontStyle=1" vertex="1" parent="fUM5ReKku75ZZo18DiIR-1">
          <mxGeometry x="448.75" y="275" width="110" height="30" as="geometry" />
        </mxCell>
        <mxCell id="a-3s-S4ITJwim3se-Trl-25" style="edgeStyle=orthogonalEdgeStyle;rounded=1;orthogonalLoop=1;jettySize=auto;html=1;exitX=0.5;exitY=1;exitDx=0;exitDy=0;entryX=0.5;entryY=0;entryDx=0;entryDy=0;strokeColor=#A8201A;" edge="1" parent="fUM5ReKku75ZZo18DiIR-1" source="a-3s-S4ITJwim3se-Trl-24" target="UOS7pjdWiTksZDZ3hv5A-1">
          <mxGeometry relative="1" as="geometry" />
        </mxCell>
        <mxCell id="a-3s-S4ITJwim3se-Trl-24" value="&lt;i&gt;&lt;span style=&quot;font-weight: normal&quot;&gt;lampf.&lt;/span&gt;&lt;/i&gt;disable()" style="shape=process;whiteSpace=wrap;html=1;backgroundOutline=1;rounded=0;sketch=0;fontColor=#143642;strokeColor=#0F8B8D;fillColor=#FAE5C7;fontStyle=1" vertex="1" parent="fUM5ReKku75ZZo18DiIR-1">
          <mxGeometry x="638.75" y="275" width="110" height="30" as="geometry" />
        </mxCell>
        <mxCell id="XsKtpCF5G8jJLxnXBGVP-3" style="edgeStyle=orthogonalEdgeStyle;rounded=1;orthogonalLoop=1;jettySize=auto;html=1;exitX=0.5;exitY=1;exitDx=0;exitDy=0;entryX=0.5;entryY=0;entryDx=0;entryDy=0;strokeColor=#A8201A;" edge="1" parent="fUM5ReKku75ZZo18DiIR-1" source="UOS7pjdWiTksZDZ3hv5A-0" target="XsKtpCF5G8jJLxnXBGVP-0">
          <mxGeometry relative="1" as="geometry" />
        </mxCell>
        <mxCell id="UOS7pjdWiTksZDZ3hv5A-0" value="&lt;i&gt;&lt;span style=&quot;font-weight: normal&quot;&gt;pir.&lt;/span&gt;&lt;/i&gt;enable()" style="shape=process;whiteSpace=wrap;html=1;backgroundOutline=1;rounded=0;sketch=0;fontColor=#143642;strokeColor=#0F8B8D;fillColor=#FAE5C7;fontStyle=1" vertex="1" parent="fUM5ReKku75ZZo18DiIR-1">
          <mxGeometry x="448.75" y="320" width="110" height="30" as="geometry" />
        </mxCell>
        <mxCell id="UOS7pjdWiTksZDZ3hv5A-3" style="edgeStyle=orthogonalEdgeStyle;rounded=1;orthogonalLoop=1;jettySize=auto;html=1;exitX=0.5;exitY=1;exitDx=0;exitDy=0;entryX=1;entryY=0.5;entryDx=0;entryDy=0;strokeColor=#A8201A;" edge="1" parent="fUM5ReKku75ZZo18DiIR-1" source="XsKtpCF5G8jJLxnXBGVP-1" target="a-3s-S4ITJwim3se-Trl-9">
          <mxGeometry relative="1" as="geometry" />
        </mxCell>
        <mxCell id="XsKtpCF5G8jJLxnXBGVP-2" style="edgeStyle=orthogonalEdgeStyle;rounded=1;orthogonalLoop=1;jettySize=auto;html=1;exitX=0.5;exitY=1;exitDx=0;exitDy=0;entryX=0.5;entryY=0;entryDx=0;entryDy=0;strokeColor=#A8201A;" edge="1" parent="fUM5ReKku75ZZo18DiIR-1" source="UOS7pjdWiTksZDZ3hv5A-1" target="XsKtpCF5G8jJLxnXBGVP-1">
          <mxGeometry relative="1" as="geometry" />
        </mxCell>
        <mxCell id="UOS7pjdWiTksZDZ3hv5A-1" value="&lt;i&gt;&lt;span style=&quot;font-weight: normal&quot;&gt;pir.&lt;/span&gt;&lt;/i&gt;disable()" style="shape=process;whiteSpace=wrap;html=1;backgroundOutline=1;rounded=0;sketch=0;fontColor=#143642;strokeColor=#0F8B8D;fillColor=#FAE5C7;fontStyle=1" vertex="1" parent="fUM5ReKku75ZZo18DiIR-1">
          <mxGeometry x="638.75" y="320" width="110" height="30" as="geometry" />
        </mxCell>
        <mxCell id="XsKtpCF5G8jJLxnXBGVP-0" value="&lt;div&gt;sendCmd(&lt;span style=&quot;font-weight: normal&quot;&gt;&quot;&lt;i&gt;MIN&lt;/i&gt;&quot;&lt;b&gt;)&lt;/b&gt;&lt;/span&gt;&lt;/div&gt;" style="shape=process;whiteSpace=wrap;html=1;backgroundOutline=1;rounded=0;sketch=0;fontColor=#143642;strokeColor=#0F8B8D;fillColor=#FAE5C7;fontStyle=1;size=0.09403877514042396;" vertex="1" parent="fUM5ReKku75ZZo18DiIR-1">
          <mxGeometry x="438.75" y="365" width="130" height="30" as="geometry" />
        </mxCell>
        <mxCell id="XsKtpCF5G8jJLxnXBGVP-1" value="&lt;div&gt;sendCmd(&lt;span style=&quot;font-weight: normal&quot;&gt;&quot;&lt;i&gt;OFF&lt;/i&gt;&quot;&lt;b&gt;)&lt;/b&gt;&lt;/span&gt;&lt;/div&gt;" style="shape=process;whiteSpace=wrap;html=1;backgroundOutline=1;rounded=0;sketch=0;fontColor=#143642;strokeColor=#0F8B8D;fillColor=#FAE5C7;fontStyle=1" vertex="1" parent="fUM5ReKku75ZZo18DiIR-1">
          <mxGeometry x="626.25" y="365" width="135" height="30" as="geometry" />
        </mxCell>
      </root>
    </mxGraphModel>
  </diagram>
  <diagram id="Cpeu0j9OQ8chOKf6RbOL" name="lampfISR">
    <mxGraphModel dx="450" dy="255" grid="1" gridSize="10" guides="1" tooltips="1" connect="1" arrows="1" fold="1" page="1" pageScale="1" pageWidth="850" pageHeight="1100" math="0" shadow="0">
      <root>
        <mxCell id="zigaWoSxXJRtMxEm03bJ-0" />
        <mxCell id="zigaWoSxXJRtMxEm03bJ-1" parent="zigaWoSxXJRtMxEm03bJ-0" />
        <mxCell id="vsm2BqBUTRSz564X8baY-0" value="&lt;div&gt;sendCmd(&lt;span style=&quot;font-weight: normal&quot;&gt;&quot;&lt;i&gt;FAIL&lt;/i&gt;&quot;&lt;b&gt;)&lt;/b&gt;&lt;/span&gt;&lt;/div&gt;" style="shape=process;whiteSpace=wrap;html=1;backgroundOutline=1;rounded=0;sketch=0;fontColor=#143642;strokeColor=#0F8B8D;fillColor=#FAE5C7;fontStyle=1" vertex="1" parent="zigaWoSxXJRtMxEm03bJ-1">
          <mxGeometry x="355" y="130" width="140" height="30" as="geometry" />
        </mxCell>
        <mxCell id="vsm2BqBUTRSz564X8baY-1" style="edgeStyle=orthogonalEdgeStyle;curved=0;rounded=1;sketch=0;orthogonalLoop=1;jettySize=auto;html=1;exitX=0.5;exitY=1;exitDx=0;exitDy=0;entryX=0.5;entryY=0;entryDx=0;entryDy=0;fontSize=10;fontColor=#143642;strokeColor=#A8201A;fillColor=#FAE5C7;" edge="1" parent="zigaWoSxXJRtMxEm03bJ-1" source="vsm2BqBUTRSz564X8baY-2" target="vsm2BqBUTRSz564X8baY-0">
          <mxGeometry relative="1" as="geometry" />
        </mxCell>
        <mxCell id="vsm2BqBUTRSz564X8baY-2" value="lampfISR" style="ellipse;whiteSpace=wrap;html=1;fontFamily=Helvetica;fillColor=#FAE5C7;strokeColor=#0F8B8D;fontColor=#143642;fontStyle=1" vertex="1" parent="zigaWoSxXJRtMxEm03bJ-1">
          <mxGeometry x="374.99999999999994" y="60" width="100" height="50" as="geometry" />
        </mxCell>
        <mxCell id="vsm2BqBUTRSz564X8baY-3" style="edgeStyle=orthogonalEdgeStyle;curved=0;rounded=1;sketch=0;orthogonalLoop=1;jettySize=auto;html=1;exitX=0.5;exitY=1;exitDx=0;exitDy=0;entryX=0.5;entryY=0;entryDx=0;entryDy=0;fontSize=10;fontColor=#143642;strokeColor=#A8201A;fillColor=#FAE5C7;" edge="1" parent="zigaWoSxXJRtMxEm03bJ-1" source="vsm2BqBUTRSz564X8baY-0" target="vsm2BqBUTRSz564X8baY-4">
          <mxGeometry relative="1" as="geometry" />
        </mxCell>
        <mxCell id="vsm2BqBUTRSz564X8baY-4" value="end" style="ellipse;whiteSpace=wrap;html=1;fillColor=#FAE5C7;strokeColor=#0F8B8D;fontColor=#143642;fontStyle=1" vertex="1" parent="zigaWoSxXJRtMxEm03bJ-1">
          <mxGeometry x="401" y="180" width="48" height="30" as="geometry" />
        </mxCell>
      </root>
    </mxGraphModel>
  </diagram>
  <diagram id="mfDVBG1htDLCLwxo0-YK" name="pirisr">
    <mxGraphModel dx="450" dy="255" grid="1" gridSize="10" guides="1" tooltips="1" connect="1" arrows="1" fold="1" page="1" pageScale="1" pageWidth="850" pageHeight="1100" math="0" shadow="0">
      <root>
        <mxCell id="1WRHudgWL_P-pfLU-fnR-0" />
        <mxCell id="1WRHudgWL_P-pfLU-fnR-1" parent="1WRHudgWL_P-pfLU-fnR-0" />
        <mxCell id="1WRHudgWL_P-pfLU-fnR-2" value="&lt;div&gt;sendCmd(&lt;span style=&quot;font-weight: normal&quot;&gt;&quot;&lt;i&gt;ON&lt;/i&gt;&quot;&lt;b&gt;)&lt;/b&gt;&lt;/span&gt;&lt;/div&gt;" style="shape=process;whiteSpace=wrap;html=1;backgroundOutline=1;rounded=0;sketch=0;fontColor=#143642;strokeColor=#0F8B8D;fillColor=#FAE5C7;fontStyle=1" parent="1WRHudgWL_P-pfLU-fnR-1" vertex="1">
          <mxGeometry x="355" y="130" width="140" height="30" as="geometry" />
        </mxCell>
        <mxCell id="1WRHudgWL_P-pfLU-fnR-3" style="edgeStyle=orthogonalEdgeStyle;curved=0;rounded=1;sketch=0;orthogonalLoop=1;jettySize=auto;html=1;exitX=0.5;exitY=1;exitDx=0;exitDy=0;entryX=0.5;entryY=0;entryDx=0;entryDy=0;fontSize=10;fontColor=#143642;strokeColor=#A8201A;fillColor=#FAE5C7;" parent="1WRHudgWL_P-pfLU-fnR-1" source="1WRHudgWL_P-pfLU-fnR-4" target="1WRHudgWL_P-pfLU-fnR-2" edge="1">
          <mxGeometry relative="1" as="geometry" />
        </mxCell>
        <mxCell id="1WRHudgWL_P-pfLU-fnR-4" value="PirISR" style="ellipse;whiteSpace=wrap;html=1;fontFamily=Helvetica;fillColor=#FAE5C7;strokeColor=#0F8B8D;fontColor=#143642;fontStyle=1" parent="1WRHudgWL_P-pfLU-fnR-1" vertex="1">
          <mxGeometry x="374.99999999999994" y="60" width="100" height="50" as="geometry" />
        </mxCell>
        <mxCell id="1WRHudgWL_P-pfLU-fnR-5" style="edgeStyle=orthogonalEdgeStyle;curved=0;rounded=1;sketch=0;orthogonalLoop=1;jettySize=auto;html=1;exitX=0.5;exitY=1;exitDx=0;exitDy=0;entryX=0.5;entryY=0;entryDx=0;entryDy=0;fontSize=10;fontColor=#143642;strokeColor=#A8201A;fillColor=#FAE5C7;" parent="1WRHudgWL_P-pfLU-fnR-1" source="1WRHudgWL_P-pfLU-fnR-2" target="1WRHudgWL_P-pfLU-fnR-6" edge="1">
          <mxGeometry relative="1" as="geometry" />
        </mxCell>
        <mxCell id="1WRHudgWL_P-pfLU-fnR-6" value="end" style="ellipse;whiteSpace=wrap;html=1;fillColor=#FAE5C7;strokeColor=#0F8B8D;fontColor=#143642;fontStyle=1" parent="1WRHudgWL_P-pfLU-fnR-1" vertex="1">
          <mxGeometry x="401" y="180" width="48" height="30" as="geometry" />
        </mxCell>
      </root>
    </mxGraphModel>
  </diagram>
</mxfile>
